%TF.GenerationSoftware,KiCad,Pcbnew,8.0.2*%
%TF.CreationDate,2024-08-10T15:59:04+02:00*%
%TF.ProjectId,p2000m-mda-interface,70323030-306d-42d6-9d64-612d696e7465,rev?*%
%TF.SameCoordinates,Original*%
%TF.FileFunction,Soldermask,Bot*%
%TF.FilePolarity,Negative*%
%FSLAX46Y46*%
G04 Gerber Fmt 4.6, Leading zero omitted, Abs format (unit mm)*
G04 Created by KiCad (PCBNEW 8.0.2) date 2024-08-10 15:59:04*
%MOMM*%
%LPD*%
G01*
G04 APERTURE LIST*
%ADD10C,2.000000*%
%ADD11R,1.700000X1.700000*%
%ADD12O,1.700000X1.700000*%
%ADD13C,1.524000*%
%ADD14R,1.524000X1.524000*%
%ADD15C,4.000000*%
%ADD16R,1.600000X1.600000*%
%ADD17C,1.600000*%
G04 APERTURE END LIST*
D10*
%TO.C,TP9*%
X64516000Y-61976000D03*
X67056000Y-61976000D03*
%TD*%
%TO.C,TP8*%
X19812000Y-64516000D03*
X22352000Y-64516000D03*
%TD*%
%TO.C,TP7*%
X19812000Y-58928000D03*
X22352000Y-58928000D03*
%TD*%
%TO.C,TP6*%
X19812000Y-52832000D03*
X22352000Y-52832000D03*
%TD*%
%TO.C,TP5*%
X19812000Y-46736000D03*
X22352000Y-46736000D03*
%TD*%
%TO.C,TP4*%
X19812000Y-40640000D03*
X22352000Y-40640000D03*
%TD*%
%TO.C,TP3*%
X64516000Y-55372000D03*
X67056000Y-55372000D03*
%TD*%
%TO.C,TP2*%
X64516000Y-48768000D03*
X67056000Y-48768000D03*
%TD*%
%TO.C,TP1*%
X64516000Y-42164000D03*
X67056000Y-42164000D03*
%TD*%
D11*
%TO.C,J7*%
X56652000Y-47752000D03*
D12*
X59192000Y-47752000D03*
X56652000Y-50292000D03*
X59192000Y-50292000D03*
X56652000Y-52832000D03*
X59192000Y-52832000D03*
X56652000Y-55372000D03*
X59192000Y-55372000D03*
X56652000Y-57912000D03*
X59192000Y-57912000D03*
%TD*%
D11*
%TO.C,J6*%
X49452000Y-47752000D03*
D12*
X51992000Y-47752000D03*
X49452000Y-50292000D03*
X51992000Y-50292000D03*
X49452000Y-52832000D03*
X51992000Y-52832000D03*
X49452000Y-55372000D03*
X51992000Y-55372000D03*
X49452000Y-57912000D03*
X51992000Y-57912000D03*
%TD*%
D11*
%TO.C,J5*%
X42252000Y-47752000D03*
D12*
X44792000Y-47752000D03*
X42252000Y-50292000D03*
X44792000Y-50292000D03*
X42252000Y-52832000D03*
X44792000Y-52832000D03*
X42252000Y-55372000D03*
X44792000Y-55372000D03*
X42252000Y-57912000D03*
X44792000Y-57912000D03*
%TD*%
D11*
%TO.C,J4*%
X35052000Y-47752000D03*
D12*
X37592000Y-47752000D03*
X35052000Y-50292000D03*
X37592000Y-50292000D03*
X35052000Y-52832000D03*
X37592000Y-52832000D03*
X35052000Y-55372000D03*
X37592000Y-55372000D03*
X35052000Y-57912000D03*
X37592000Y-57912000D03*
%TD*%
D11*
%TO.C,J3*%
X27852000Y-47752000D03*
D12*
X30392000Y-47752000D03*
X27852000Y-50292000D03*
X30392000Y-50292000D03*
X27852000Y-52832000D03*
X30392000Y-52832000D03*
X27852000Y-55372000D03*
X30392000Y-55372000D03*
X27852000Y-57912000D03*
X30392000Y-57912000D03*
%TD*%
D13*
%TO.C,J2*%
X37942500Y-22210000D03*
X47942500Y-22210000D03*
D14*
X35442500Y-32210000D03*
D13*
X42942500Y-32210000D03*
X50442500Y-32210000D03*
X37942500Y-34710000D03*
X47942500Y-34710000D03*
%TD*%
D15*
%TO.C,J1*%
X31287500Y-69845000D03*
X56287500Y-69845000D03*
D16*
X38247500Y-69545000D03*
D17*
X41017500Y-69545000D03*
X43787500Y-69545000D03*
X46557500Y-69545000D03*
X49327500Y-69545000D03*
X39632500Y-72385000D03*
X42402500Y-72385000D03*
X45172500Y-72385000D03*
X47942500Y-72385000D03*
%TD*%
M02*
