M48
; DRILL file {KiCad 8.0.2} date 2024-08-10T15:59:05+0200
; FORMAT={-:-/ absolute / inch / decimal}
; #@! TF.CreationDate,2024-08-10T15:59:05+02:00
; #@! TF.GenerationSoftware,Kicad,Pcbnew,8.0.2
; #@! TF.FileFunction,Plated,1,2,PTH
FMAT,2
INCH
; #@! TA.AperFunction,Plated,PTH,ViaDrill
T1C0.0118
; #@! TA.AperFunction,Plated,PTH,ComponentDrill
T2C0.0300
; #@! TA.AperFunction,Plated,PTH,ComponentDrill
T3C0.0394
; #@! TA.AperFunction,Plated,PTH,ComponentDrill
T4C0.1260
%
G90
G05
T1
X0.98Y-1.9
X1.0Y-1.72
X1.5Y-1.76
X1.7635Y-1.7565
X1.84Y-2.44
X1.84Y-2.5
T2
X1.3954Y-1.2681
X1.4938Y-0.8744
X1.4938Y-1.3665
X1.6906Y-1.2681
X1.8875Y-0.8744
X1.8875Y-1.3665
X1.9859Y-1.2681
T3
X0.78Y-1.6
X0.78Y-1.84
X0.78Y-2.08
X0.78Y-2.32
X0.78Y-2.54
X0.88Y-1.6
X0.88Y-1.84
X0.88Y-2.08
X0.88Y-2.32
X0.88Y-2.54
X1.0965Y-1.88
X1.0965Y-1.98
X1.0965Y-2.08
X1.0965Y-2.18
X1.0965Y-2.28
X1.1965Y-1.88
X1.1965Y-1.98
X1.1965Y-2.08
X1.1965Y-2.18
X1.1965Y-2.28
X1.38Y-1.88
X1.38Y-1.98
X1.38Y-2.08
X1.38Y-2.18
X1.38Y-2.28
X1.48Y-1.88
X1.48Y-1.98
X1.48Y-2.08
X1.48Y-2.18
X1.48Y-2.28
X1.5058Y-2.738
X1.5603Y-2.8498
X1.6149Y-2.738
X1.6635Y-1.88
X1.6635Y-1.98
X1.6635Y-2.08
X1.6635Y-2.18
X1.6635Y-2.28
X1.6694Y-2.8498
X1.7239Y-2.738
X1.7635Y-1.88
X1.7635Y-1.98
X1.7635Y-2.08
X1.7635Y-2.18
X1.7635Y-2.28
X1.7784Y-2.8498
X1.833Y-2.738
X1.8875Y-2.8498
X1.942Y-2.738
X1.9469Y-1.88
X1.9469Y-1.98
X1.9469Y-2.08
X1.9469Y-2.18
X1.9469Y-2.28
X2.0469Y-1.88
X2.0469Y-1.98
X2.0469Y-2.08
X2.0469Y-2.18
X2.0469Y-2.28
X2.2304Y-1.88
X2.2304Y-1.98
X2.2304Y-2.08
X2.2304Y-2.18
X2.2304Y-2.28
X2.3304Y-1.88
X2.3304Y-1.98
X2.3304Y-2.08
X2.3304Y-2.18
X2.3304Y-2.28
X2.54Y-1.66
X2.54Y-1.92
X2.54Y-2.18
X2.54Y-2.44
X2.64Y-1.66
X2.64Y-1.92
X2.64Y-2.18
X2.64Y-2.44
T4
X1.2318Y-2.7498
X2.216Y-2.7498
M30
